<svg version="1.1" id="Layer_1" xmlns="http://www.w3.org/2000/svg" xmlns:xlink="http://www.w3.org/1999/xlink" x="0px" y="0px"
	 width="100%" viewBox="0 0 384 400" enable-background="new 0 0 384 400" xml:space="preserve">
<path fill="#11a79a" opacity="1.000000" stroke="none" 
	d="
M345.950867,187.342377 
	C348.635315,254.858017 303.607086,314.538452 237.989059,329.587738 
	C177.194382,343.530792 114.489433,319.404510 82.295525,263.548035 
	C67.461464,237.810898 61.376320,210.091278 64.627968,180.516708 
	C70.390350,128.106323 96.407761,88.740738 143.803589,65.892311 
	C225.783844,26.371536 322.776703,72.754227 342.974091,164.149704 
	C344.627533,171.631668 345.393677,179.239731 345.950867,187.342377 
M327.816010,248.352600 
	C338.972687,223.525146 342.230927,197.691269 337.750824,170.853241 
	C327.672821,110.481094 276.473267,64.025307 217.780899,59.025921 
	C177.101639,55.560883 141.549881,67.615356 112.341187,95.857765 
	C80.960236,126.200584 67.026009,163.675461 71.139076,207.482910 
	C73.986580,237.811020 86.018616,264.098022 107.253387,285.697968 
	C143.111313,322.172546 186.842499,334.146271 236.298111,323.184448 
	C278.658234,313.795349 308.656281,287.972809 327.816010,248.352600 
z"/>
<path fill="#11a79a" opacity="1.000000" stroke="none" 
	d="
M146.903198,277.051636 
	C153.759720,278.082306 157.997437,275.403778 161.486679,270.057251 
	C165.757202,263.513611 170.788528,257.467804 175.464935,251.187393 
	C182.974625,241.101959 185.852875,229.761002 184.676422,217.297272 
	C184.292526,213.229965 182.701157,210.530014 178.819382,208.338562 
	C163.955444,199.947083 148.135086,193.796860 132.372635,187.465500 
	C129.724411,186.401779 127.640724,186.299133 125.091606,188.316467 
	C120.442772,191.995438 114.627190,190.916290 112.043900,186.486603 
	C109.552559,182.214600 110.833534,177.175385 115.016525,174.792587 
	C119.952423,171.980942 125.079971,173.818390 127.616539,179.547897 
	C128.415298,181.352112 129.318588,182.545273 131.240494,183.244385 
	C148.455093,189.506088 165.305679,196.612686 182.465759,206.131851 
	C180.930176,200.469177 178.749695,196.362503 175.739838,192.781082 
	C168.236755,183.853180 160.717117,174.928894 152.888885,166.288773 
	C148.758499,161.730011 142.539444,162.247787 137.058456,161.362244 
	C126.316902,159.626724 115.450356,160.472946 104.634819,160.249298 
	C102.479782,160.204742 99.972595,160.783844 97.905556,157.015182 
	C114.373833,156.634521 129.953979,155.841675 145.889267,158.013428 
	C142.500748,152.827759 138.156052,148.752121 134.179489,144.369110 
	C132.905670,142.965088 131.183319,143.203171 129.543152,142.988708 
	C124.370522,142.312393 121.110168,138.357224 121.848305,133.791031 
	C122.508827,129.704956 126.563934,126.583916 130.478348,127.148842 
	C135.308228,127.845894 138.177536,131.702835 137.067139,137.028137 
	C136.471313,139.885574 137.056610,141.829758 138.933899,143.745789 
	C139.981537,144.815048 140.950287,145.967484 141.894775,147.130981 
	C148.226120,154.930313 155.168854,161.466553 165.009720,165.307114 
	C175.155701,169.266754 183.086823,177.001205 189.989502,185.565598 
	C183.316589,170.804077 174.062408,157.678757 164.502426,144.744705 
	C163.351654,143.187805 161.606232,143.434402 159.960922,143.210388 
	C155.522018,142.605988 152.397614,138.692764 152.839783,134.490280 
	C153.286346,130.246017 157.404968,127.139023 161.784637,127.742485 
	C166.228317,128.354767 169.342331,132.084198 168.087189,136.775055 
	C166.963730,140.973770 168.424545,143.572220 170.784073,146.607712 
	C181.724426,160.682327 190.946213,175.828049 198.288391,192.145325 
	C198.181442,178.563583 194.028595,165.954391 189.360092,153.540970 
	C184.836975,141.514114 178.892227,130.143784 172.023315,119.262291 
	C170.627243,117.050644 169.182114,115.553871 166.373962,114.969147 
	C162.240356,114.108406 160.059509,110.333641 161.121216,106.706909 
	C162.240967,102.881828 164.908936,100.785339 168.944931,101.208878 
	C172.785751,101.611954 175.789886,105.745796 174.276398,109.813789 
	C172.813339,113.746185 174.508957,116.186752 176.225418,118.967232 
	C187.682877,137.526947 196.269501,157.291611 201.743759,178.548447 
	C201.743759,171.064194 201.750443,163.579941 201.741882,156.095688 
	C201.733322,148.596848 201.629257,141.096878 201.735703,133.599792 
	C201.773254,130.955078 200.214172,129.901413 198.309082,128.650223 
	C192.940109,125.124084 190.961334,118.999504 193.124985,113.373940 
	C195.152267,108.102913 200.499268,105.127846 206.893509,105.713097 
	C212.356171,106.213097 216.696396,110.598869 217.635361,116.567665 
	C218.386368,121.341606 215.909866,126.595184 211.053879,128.950714 
	C208.191299,130.339279 207.234650,131.997055 207.258469,135.072418 
	C207.383575,151.234680 207.317017,167.398438 207.531647,183.619812 
	C210.467072,169.514282 214.847931,155.907745 220.803711,142.797012 
	C224.877075,133.830093 229.500748,125.173256 234.731293,116.842949 
	C236.054214,114.736031 236.581009,112.943802 235.634018,110.384666 
	C234.128693,106.316734 236.255539,102.338104 240.146118,101.264839 
	C244.204773,100.145203 246.952667,102.069878 248.579407,105.650429 
	C250.129623,109.062569 248.411301,113.203377 244.240387,114.319839 
	C240.184998,115.405365 238.248520,118.039871 236.387589,121.266342 
	C224.494034,141.887207 214.676224,163.276352 211.691498,187.227203 
	C211.532272,188.504913 211.014557,189.796188 211.907806,191.608246 
	C218.354141,176.167618 226.978729,162.409286 236.390366,149.113251 
	C239.291656,145.014542 242.930679,141.566238 241.001907,135.345779 
	C239.761429,131.345154 243.839203,127.902298 248.275391,127.686081 
	C252.927032,127.459366 256.407043,130.518433 256.652527,135.049896 
	C256.895203,139.529709 254.218552,143.096619 249.752701,143.139587 
	C246.420609,143.171692 244.623871,144.720428 242.833023,147.074677 
	C234.666916,157.809875 227.675613,169.249847 221.872437,181.505112 
	C230.947769,171.613205 241.799011,164.597092 254.512405,160.471588 
	C256.336395,159.879715 257.551178,158.488800 258.755249,157.091110 
	C262.343353,152.926041 265.853729,148.688614 269.574921,144.645538 
	C271.865906,142.156418 273.068115,139.884933 271.995209,136.198227 
	C270.720459,131.817825 273.923462,127.655060 278.186493,126.956604 
	C282.363190,126.272285 286.756317,129.507034 287.250397,133.630524 
	C287.815552,138.347183 284.842072,142.086075 279.823425,142.248077 
	C276.825592,142.344849 274.856476,143.454666 273.096649,145.722961 
	C270.174683,149.489243 267.054016,153.101334 263.463806,157.448151 
	C279.763855,156.751266 295.117676,155.681427 310.437531,157.564484 
	C310.697906,157.596497 310.870209,158.344925 311.115448,158.820786 
	C309.449371,161.054459 307.102875,160.190536 305.099945,160.220398 
	C291.795868,160.418732 278.464081,159.719147 265.256592,162.196167 
	C260.125763,163.158432 256.077454,165.181412 252.823944,169.555573 
	C247.562393,176.629410 241.683197,183.242889 236.089493,190.070999 
	C232.723129,194.180237 229.745361,198.502396 228.734970,203.932373 
	C230.622635,204.563339 231.827087,203.492157 233.091354,202.837158 
	C247.457901,195.394012 262.256104,188.943726 277.480072,183.469635 
	C279.555786,182.723236 281.287140,182.003281 281.868439,179.336365 
	C282.846893,174.847610 286.509125,173.400528 290.608826,173.467987 
	C294.206024,173.527191 297.020996,175.353806 298.143585,178.972992 
	C299.415710,183.074341 298.468842,186.702072 294.754486,189.035767 
	C291.358429,191.169464 287.226166,191.361465 284.567902,188.495575 
	C281.814850,185.527451 279.585022,186.253494 276.703247,187.403976 
	C261.234314,193.579575 245.857910,199.914551 231.216751,207.966629 
	C226.913773,210.333099 225.511185,213.473938 225.273193,217.943359 
	C224.608017,230.434906 227.919525,241.668839 235.539734,251.594177 
	C240.409470,257.937012 245.426270,264.168121 250.231323,270.558929 
	C252.553238,273.647095 255.380630,274.862976 259.238892,274.768555 
	C267.399384,274.568878 275.568512,274.682007 283.733490,274.748077 
	C285.125854,274.759338 286.733185,274.101929 288.098541,275.762115 
	C286.877319,278.523560 284.559845,279.286316 281.745544,279.285248 
	C273.246796,279.282043 264.747803,279.267334 256.249451,279.328949 
	C253.602051,279.348145 251.085190,278.718475 249.439957,276.751373 
	C239.527191,264.899323 228.719620,253.641251 223.143814,238.785187 
	C220.461121,231.637512 220.562424,224.121414 220.603134,215.983475 
	C216.719513,218.326721 215.064331,221.099243 215.289551,225.113007 
	C215.936523,236.643280 220.247757,246.769836 227.123978,255.861450 
	C232.651031,263.169220 238.393143,270.314056 244.010635,277.553833 
	C247.299606,281.792633 251.478943,283.887726 256.947845,283.737854 
	C263.885620,283.547791 270.832520,283.691925 277.918945,284.343994 
	C260.111206,298.715088 239.760468,307.065186 217.232864,309.040039 
	C186.761398,311.711304 158.389954,305.500458 133.147141,285.765808 
	C136.825317,283.935516 140.131454,284.418457 143.290085,284.211456 
	C144.769104,284.114532 146.286758,284.351410 147.767014,284.571075 
	C157.016998,285.943726 164.046936,283.406830 169.216721,274.847137 
	C173.929062,267.044861 180.125854,260.152405 185.446640,252.700623 
	C190.786423,245.222244 193.453964,236.671051 194.581985,227.619064 
	C195.122559,223.281113 194.585098,219.345612 189.546265,216.873993 
	C192.158569,237.634521 181.170120,252.654602 169.386917,267.346558 
	C168.970078,267.866302 168.399933,268.302521 168.114655,268.882599 
	C162.417511,280.466644 152.659088,283.465149 140.679535,282.118652 
	C137.553604,281.767334 134.347946,282.192963 131.189957,282.037598 
	C128.700455,281.915100 126.184929,281.527069 124.671432,278.056702 
	C132.032059,276.301514 139.276077,277.314178 146.903198,277.051636 
M245.642578,172.282455 
	C246.672546,170.900818 247.702499,169.519180 249.104095,167.639008 
	C225.422455,178.075470 214.636810,200.046722 216.234512,212.902496 
	C219.845108,211.375107 222.067276,208.846252 223.047852,204.960373 
	C224.921967,197.533447 228.970917,191.272583 234.039169,185.606659 
	C237.813232,181.387512 241.492645,177.083710 245.642578,172.282455 
M168.290039,172.224701 
	C166.053650,170.978409 163.817245,169.732117 161.580841,168.485825 
	C163.551849,172.075882 165.968872,174.999313 168.509979,177.810623 
	C176.779770,186.959763 185.261108,195.919968 188.406143,208.449387 
	C189.085587,211.156174 191.650635,212.541809 194.497528,213.875076 
	C192.845520,195.376343 183.545883,182.325302 168.290039,172.224701 
z"/>
</svg>
